<svg width="30" height="31" viewBox="0 0 30 31" fill="none" xmlns="http://www.w3.org/2000/svg">
<g clip-path="url(#clip0_2065_109)">
<g clip-path="url(#clip1_2065_109)">
<g clip-path="url(#clip2_2065_109)">
<path d="M12.3932 15.0718L17.4376 10.0273L16.4968 9.04615L10.4712 15.0718L16.4968 21.0974L17.4376 20.1162L12.3932 15.0718ZM14.833 0.555664C16.8404 0.555664 18.7276 0.936561 20.4946 1.69836C22.2618 2.46019 23.799 3.49857 25.1061 4.81349C26.4134 6.12841 27.4482 7.66516 28.2107 9.42377C28.9732 11.1823 29.3545 13.0632 29.3545 15.0664C29.3545 17.0737 28.9736 18.9609 28.2118 20.7281C27.45 22.4952 26.4161 24.0324 25.1101 25.3396C23.8041 26.6467 22.2684 27.6816 20.503 28.4441C18.7375 29.2066 16.8511 29.5879 14.8438 29.5879C12.8364 29.5879 10.9537 29.207 9.19557 28.4452C7.4374 27.6834 5.90024 26.6495 4.58408 25.3435C3.26792 24.0375 2.22859 22.5018 1.46605 20.7364C0.70353 18.9709 0.322267 17.0845 0.322266 15.0772C0.322266 13.074 0.703164 11.1923 1.46497 9.43207C2.2268 7.67184 3.26517 6.13363 4.58009 4.81747C5.895 3.50133 7.43073 2.46198 9.18726 1.69946C10.9438 0.936926 12.8257 0.555664 14.833 0.555664ZM14.8384 1.92042C11.1797 1.92042 8.07316 3.19766 5.51871 5.75212C2.96425 8.30655 1.68703 11.4131 1.68703 15.0718C1.68703 18.7346 2.96425 21.8422 5.51871 24.3946C8.07316 26.9469 11.1797 28.2232 14.8384 28.2232C18.5012 28.2232 21.6088 26.9469 24.1611 24.3946C26.7136 21.8422 27.9898 18.7346 27.9898 15.0718C27.9898 11.4131 26.7136 8.30655 24.1611 5.75212C21.6088 3.19766 18.5012 1.92042 14.8384 1.92042Z" fill="#11322C"/>
</g>
</g>
</g>
<defs>
<clipPath id="clip0_2065_109">
<rect width="30" height="30.2115" fill="white"/>
</clipPath>
<clipPath id="clip1_2065_109">
<rect width="30" height="30" fill="white"/>
</clipPath>
<clipPath id="clip2_2065_109">
<rect width="30" height="30" fill="white"/>
</clipPath>
</defs>
</svg>
