<svg width="12" height="12" viewBox="0 0 12 12" fill="none" xmlns="http://www.w3.org/2000/svg">
<path d="M11.9998 4.88826C11.8477 5.28472 11.4971 5.48811 11.2144 5.75365C10.5618 6.36775 9.89651 6.96613 9.23355 7.5682C9.17825 7.61732 9.16813 7.66179 9.18413 7.73499C9.43344 8.86903 9.6807 10.0037 9.92593 11.1391C9.98994 11.4338 9.92428 11.6859 9.68823 11.8659C9.45218 12.046 9.20201 12.0379 8.95349 11.8824C8.00271 11.2884 7.05224 10.6941 6.10209 10.0993C6.02913 10.0536 5.97735 10.0501 5.90299 10.0976C4.95691 10.6918 4.00566 11.2766 3.0624 11.8755C2.6322 12.1494 2.18246 11.9089 2.07585 11.5206C2.0437 11.3983 2.04233 11.2694 2.07185 11.1464C2.31676 10.0239 2.56246 8.90137 2.80894 7.77896C2.83248 7.67628 2.81765 7.6129 2.73834 7.54019C1.90593 6.78509 1.08035 6.02533 0.251476 5.26851C0.0330786 5.0693 -0.0544687 4.82636 0.0342553 4.53527C0.11992 4.25672 0.316666 4.1027 0.596723 4.07543C1.17159 4.01943 1.74661 3.96432 2.32178 3.91012C2.86589 3.85853 3.41001 3.80621 3.95435 3.75831C4.03672 3.75119 4.06332 3.70206 4.09085 3.63549C4.52325 2.5758 4.95597 1.51652 5.389 0.457641C5.50667 0.170487 5.70224 -0.00170673 6.00512 1.27575e-05C6.30283 0.00173224 6.49511 0.173435 6.61019 0.45543C7.03757 1.50382 7.47013 2.55001 7.89304 3.59963C7.9427 3.72245 8.01071 3.75389 8.12603 3.76445C9.22225 3.86549 10.3182 3.96989 11.4138 4.07764C11.7166 4.10761 11.9002 4.28398 11.9812 4.59152C11.9838 4.60209 11.9936 4.61044 12 4.61977L11.9998 4.88826Z" fill="#212121"/>
</svg>
