<svg width="32" height="32" viewBox="0 0 32 32" fill="none" xmlns="http://www.w3.org/2000/svg">
<g clip-path="url(#clip0_2138_563)">
<path d="M16 32C24.8366 32 32 24.8366 32 16C32 7.16344 24.8366 0 16 0C7.16344 0 0 7.16344 0 16C0 24.8366 7.16344 32 16 32Z" fill="#F0F0F0"/>
<path d="M3.30758 6.25732C2.05077 7.89251 1.10308 9.7772 0.55127 11.8246H8.87489L3.30758 6.25732Z" fill="#0052B4"/>
<path d="M31.4494 11.8249C30.8976 9.77757 29.9498 7.89288 28.693 6.25769L23.1259 11.8249H31.4494Z" fill="#0052B4"/>
<path d="M0.55127 20.1737C1.10314 22.2211 2.05083 24.1058 3.30758 25.7409L8.87471 20.1737H0.55127Z" fill="#0052B4"/>
<path d="M25.7407 3.30643C24.1055 2.04961 22.2209 1.10192 20.1735 0.550049V8.87362L25.7407 3.30643Z" fill="#0052B4"/>
<path d="M6.25861 28.6903C7.8938 29.9471 9.77848 30.8948 11.8259 31.4467V23.1232L6.25861 28.6903Z" fill="#0052B4"/>
<path d="M11.8258 0.550049C9.77842 1.10192 7.89373 2.04961 6.25861 3.30636L11.8258 8.87354V0.550049Z" fill="#0052B4"/>
<path d="M20.1735 31.4467C22.2208 30.8948 24.1055 29.9471 25.7406 28.6904L20.1735 23.1232V31.4467Z" fill="#0052B4"/>
<path d="M23.1259 20.1737L28.693 25.7409C29.9498 24.1058 30.8976 22.2211 31.4494 20.1737H23.1259Z" fill="#0052B4"/>
<path d="M31.8646 13.9131H18.0871H18.087V0.135438C17.4038 0.0465 16.7073 0 16 0C15.2926 0 14.5962 0.0465 13.9131 0.135438V13.9129V13.913H0.135438C0.0465 14.5962 0 15.2927 0 16C0 16.7074 0.0465 17.4038 0.135438 18.0869H13.9129H13.913V31.8646C14.5962 31.9535 15.2926 32 16 32C16.7073 32 17.4038 31.9536 18.0869 31.8646V18.0871V18.087H31.8646C31.9535 17.4038 32 16.7074 32 16C32 15.2927 31.9535 14.5962 31.8646 13.9131Z" fill="#D80027"/>
<path d="M20.1739 20.175L27.3136 27.3147C27.642 26.9865 27.9553 26.6433 28.2541 26.2876L22.1415 20.1749H20.1739V20.175Z" fill="#D80027"/>
<path d="M11.826 20.1749H11.8259L4.68622 27.3146C5.01447 27.643 5.35766 27.9562 5.71341 28.2551L11.826 22.1424V20.1749Z" fill="#D80027"/>
<path d="M11.8259 11.8255V11.8254L4.68611 4.68555C4.35773 5.0138 4.04448 5.35698 3.74561 5.71273L9.85829 11.8254H11.8259V11.8255Z" fill="#D80027"/>
<path d="M20.1739 11.8269L27.3137 4.68702C26.9855 4.35864 26.6423 4.04539 26.2865 3.74658L20.1739 9.85927V11.8269Z" fill="#D80027"/>
</g>
<defs>
<clipPath id="clip0_2138_563">
<rect width="32" height="32" fill="white"/>
</clipPath>
</defs>
</svg>
