<svg width="28" height="28" viewBox="0 0 28 28" fill="none" xmlns="http://www.w3.org/2000/svg">
<path d="M28 8.5C28 10.625 27.1875 12.5625 25.9375 14C27.1875 15.5 28 17.4375 28 19.5C28 24.25 24.1875 28 19.5 28C17.375 28 15.4375 27.25 14 26C12.5 27.25 10.5625 28 8.5 28C3.75 28 0 24.25 0 19.5C0 17.4375 0.75 15.5 2 14C0.75 12.5625 0 10.625 0 8.5C0 3.8125 3.75 0 8.5 0C10.5625 0 12.5 0.8125 14 2.0625C15.4375 0.8125 17.375 0 19.5 0C24.1875 0 28 3.8125 28 8.5ZM12.6875 3.5625C11.5625 2.625 10.0625 2 8.5 2C4.875 2 2 4.9375 2 8.5C2 10.125 2.5625 11.625 3.5 12.75C4.125 13.5 4.125 14.5625 3.5 15.3125C2.5625 16.4375 2 17.9375 2 19.5C2 23.125 4.875 26 8.5 26C10.0625 26 11.5625 25.4375 12.6875 24.5C13.4375 23.875 14.5 23.875 15.25 24.5C16.375 25.4375 17.875 26 19.5 26C23.0625 26 26 23.125 26 19.5C26 17.9375 25.375 16.4375 24.4375 15.3125C23.8125 14.5625 23.8125 13.5 24.4375 12.75C25.375 11.625 26 10.125 26 8.5C26 4.9375 23.0625 2 19.5 2C17.875 2 16.375 2.625 15.25 3.5625C14.5 4.1875 13.4375 4.1875 12.6875 3.5625ZM17 14C17 12.9375 16.375 12 15.5 11.4375C14.5625 10.875 13.375 10.875 12.5 11.4375C11.5625 12 11 12.9375 11 14C11 15.125 11.5625 16.0625 12.5 16.625C13.375 17.1875 14.5625 17.1875 15.5 16.625C16.375 16.0625 17 15.125 17 14ZM9 14C9 12.25 9.9375 10.625 11.5 9.6875C13 8.8125 14.9375 8.8125 16.5 9.6875C18 10.625 19 12.25 19 14C19 15.8125 18 17.4375 16.5 18.375C14.9375 19.25 13 19.25 11.5 18.375C9.9375 17.4375 9 15.8125 9 14Z" fill="#212121"/>
</svg>
