<svg width="32" height="32" viewBox="0 0 32 32" fill="none" xmlns="http://www.w3.org/2000/svg">
<path d="M11.875 4.5C11.625 4.9375 11.1875 5.125 10.6875 5C9.125 4.5 7.3125 4.875 6.0625 6.125C4.8125 7.375 4.4375 9.1875 4.9375 10.75C5.0625 11.25 4.875 11.6875 4.4375 11.9375C2.9375 12.6875 2 14.25 2 16C2 17.8125 2.9375 19.3125 4.4375 20.125C4.875 20.375 5.0625 20.8125 4.9375 21.3125C4.4375 22.875 4.8125 24.6875 6.0625 25.9375C7.3125 27.1875 9.125 27.5625 10.6875 27.0625C11.1875 26.9375 11.6875 27.125 11.875 27.5625C12.6875 29.0625 14.1875 30 16 30C17.75 30 19.3125 29.0625 20.0625 27.5625C20.3125 27.125 20.8125 26.9375 21.25 27.0625C22.8125 27.5625 24.625 27.1875 25.875 25.9375C27.125 24.6875 27.5 22.875 27 21.3125C26.875 20.8125 27.0625 20.3125 27.5 20.125C29 19.3125 30 17.8125 30 16C30 14.25 29 12.6875 27.5 11.9375C27.0625 11.6875 26.875 11.1875 27 10.75C27.5 9.1875 27.125 7.375 25.875 6.125C24.625 4.875 22.8125 4.5 21.25 5C20.75 5.125 20.3125 4.9375 20.0625 4.5C19.3125 3 17.75 2 16 2C14.1875 2 12.6875 3 11.875 4.5ZM16 0C18.25 0 20.25 1.1875 21.4375 2.875C23.5 2.5 25.6875 3.125 27.3125 4.6875C28.875 6.3125 29.5 8.5 29.125 10.5625C30.8125 11.75 32 13.75 32 16C32 18.3125 30.8125 20.25 29.125 21.5C29.5 23.5625 28.875 25.75 27.3125 27.3125C25.6875 28.9375 23.5 29.5625 21.4375 29.1875C20.25 30.875 18.25 32 16 32C13.6875 32 11.75 30.875 10.5 29.1875C8.4375 29.5625 6.25 28.9375 4.6875 27.3125C3.0625 25.75 2.4375 23.5625 2.8125 21.5C1.125 20.25 0 18.3125 0 16C0 13.75 1.125 11.75 2.8125 10.5625C2.4375 8.5 3.0625 6.3125 4.6875 4.6875C6.25 3.125 8.4375 2.5 10.5 2.875C11.75 1.1875 13.6875 0 16 0ZM21.6875 10.3125C22.0625 10.6875 22.0625 11.375 21.6875 11.75L11.6875 21.75C11.3125 22.125 10.625 22.125 10.25 21.75C9.875 21.375 9.875 20.6875 10.25 20.3125L20.25 10.3125C20.625 9.9375 21.3125 9.9375 21.6875 10.3125ZM12 13.5C11.125 13.5 10.5 12.875 10.5 12C10.5 11.1875 11.125 10.5 12 10.5C12.8125 10.5 13.5 11.1875 13.5 12C13.5 12.875 12.8125 13.5 12 13.5ZM20 21.5C19.125 21.5 18.5 20.875 18.5 20C18.5 19.1875 19.125 18.5 20 18.5C20.8125 18.5 21.5 19.1875 21.5 20C21.5 20.875 20.8125 21.5 20 21.5Z" fill="#212121"/>
</svg>
