<svg width="32" height="32" viewBox="0 0 32 32" fill="none" xmlns="http://www.w3.org/2000/svg">
<path d="M22.8125 2C21.6875 2 20.6875 2.5625 20.0625 3.5L17.25 8H18H23C24.625 8 26 6.6875 26 5C26 3.375 24.625 2 23 2H22.8125ZM14.6875 8L11.875 3.5C11.25 2.5625 10.25 2 9.125 2H9C7.3125 2 6 3.375 6 5C6 6.6875 7.3125 8 9 8H14H14.6875ZM16 6.3125L18.375 2.4375C19.375 0.9375 21 0 22.8125 0H23C25.75 0 28 2.25 28 5C28 6.125 27.625 7.1875 27 8H29C30.625 8 32 9.375 32 11V15C32 16.3125 31.125 17.4375 30 17.875V18V28C30 30.25 28.1875 32 26 32H6C3.75 32 2 30.25 2 28V18V17.875C0.8125 17.4375 0 16.3125 0 15V11C0 9.375 1.3125 8 3 8H5C4.375 7.1875 4 6.125 4 5C4 2.25 6.1875 0 9 0H9.125C10.9375 0 12.625 0.9375 13.5625 2.4375L16 6.3125ZM9 10H3C2.4375 10 2 10.5 2 11V15C2 15.5625 2.4375 16 3 16H4H15V10H14H9ZM17 10V16H28H29C29.5 16 30 15.5625 30 15V11C30 10.5 29.5 10 29 10H23H18H17ZM15 18H4V28C4 29.125 4.875 30 6 30H15V18ZM17 30H26C27.0625 30 28 29.125 28 28V18H17V30Z" fill="#212121"/>
</svg>
