<svg width="10" height="10" viewBox="0 0 10 10" fill="none" xmlns="http://www.w3.org/2000/svg">
<path d="M4.50712 0.307962C4.67792 -0.102684 5.25964 -0.102684 5.43044 0.307963L6.43852 2.73167C6.51052 2.90479 6.67333 3.02307 6.86022 3.03806L9.47682 3.24783C9.92015 3.28337 10.0999 3.83662 9.76214 4.12596L7.76857 5.83367C7.62617 5.95564 7.56399 6.14703 7.60749 6.32941L8.21656 8.88276C8.31976 9.31538 7.84913 9.6573 7.46958 9.42548L5.22941 8.05719C5.0694 7.95946 4.86816 7.95946 4.70815 8.05719L2.46798 9.42548C2.08843 9.6573 1.61781 9.31538 1.721 8.88276L2.33007 6.32941C2.37357 6.14703 2.31139 5.95564 2.16899 5.83367L0.175419 4.12596C-0.16235 3.83662 0.0174142 3.28337 0.460741 3.24783L3.07734 3.03806C3.26423 3.02307 3.42704 2.90479 3.49904 2.73167L4.50712 0.307962Z" fill="#E9B88B"/>
</svg>
