<svg width="72" height="72" viewBox="0 0 72 72" fill="none" xmlns="http://www.w3.org/2000/svg">
<rect width="72" height="72" rx="36" fill="#FFBB36"/>
<rect x="4.25" y="4.25" width="63.5" height="63.5" rx="31.75" stroke="#212121" stroke-width="0.5"/>
<path d="M19.0185 27.5V16.79H25.8435V18.5H21.0285V21.26H25.4835V22.925H21.0285V27.5H19.0185ZM27.3534 27.485V16.79H31.4784C33.9384 16.79 35.3334 18.05 35.3334 19.835C35.3334 21.425 34.3584 22.37 33.2184 22.67C34.2084 22.955 34.5534 23.78 34.9134 24.95C35.2134 25.925 35.4534 26.72 35.8284 27.41V27.5H33.7734C33.4284 26.87 33.1734 25.925 32.8584 25.04C32.4984 24.05 32.0184 23.375 30.6984 23.375H29.3634V27.485H27.3534ZM29.3634 21.755H31.3734C32.6334 21.755 33.3534 21.08 33.3534 20.03C33.3534 19.115 32.7234 18.425 31.3284 18.425H29.3634V21.755ZM44.3769 16.79V18.5H39.4269V21.26H44.0619V22.925H39.4269V25.79H44.4219V27.5H37.4169V16.79H44.3769ZM53.2246 16.79V18.5H48.2746V21.26H52.9096V22.925H48.2746V25.79H53.2696V27.5H46.2646V16.79H53.2246ZM13.1767 41.5V32.218H16.4657C18.3507 32.218 19.6247 33.011 19.6247 34.675C19.6247 35.715 19.0917 36.365 18.0777 36.742V36.768C19.0787 36.963 19.9497 37.561 19.9497 38.861C19.9497 40.785 18.5587 41.5 16.4007 41.5H13.1767ZM14.9187 40.07H16.2967C17.4667 40.07 18.2207 39.758 18.2207 38.757C18.2207 37.834 17.5187 37.496 16.5177 37.496H14.9187V40.07ZM14.9187 36.105H16.1797C17.2977 36.105 17.8957 35.754 17.8957 34.818C17.8957 33.869 17.2847 33.635 16.2707 33.635H14.9187V36.105ZM24.2908 41.695C22.3278 41.695 20.7678 40.304 20.7678 38.133C20.7678 35.975 22.3278 34.597 24.2908 34.597C26.2538 34.597 27.8008 35.975 27.8008 38.133C27.8008 40.304 26.2538 41.695 24.2908 41.695ZM22.4058 38.133C22.4058 39.355 23.1468 40.369 24.2908 40.369C25.4348 40.369 26.1758 39.355 26.1758 38.133C26.1758 36.924 25.4348 35.91 24.2908 35.91C23.1468 35.91 22.4058 36.924 22.4058 38.133ZM31.0188 38.978C31.0188 39.758 31.1878 40.2 31.9028 40.2H32.3318V41.526H31.5258C29.8618 41.552 29.3938 40.564 29.3938 39.212V36.053H28.3148V34.779H29.3938V33.258L31.0188 32.543V34.779H32.3708V36.053H31.0188V38.978ZM35.5257 38.978C35.5257 39.758 35.6947 40.2 36.4097 40.2H36.8387V41.526H36.0327C34.3687 41.552 33.9007 40.564 33.9007 39.212V36.053H32.8217V34.779H33.9007V33.258L35.5257 32.543V34.779H36.8777V36.053H35.5257V38.978ZM37.9416 32.218H39.6186V41.5H37.9416V32.218ZM47.4186 39.524C47.0156 40.863 45.8456 41.708 44.2206 41.708C42.1926 41.708 40.7756 40.265 40.7756 38.12C40.7756 36.066 42.2316 34.584 44.2336 34.584C46.4826 34.584 47.5096 36.287 47.5226 38.276V38.601H42.3746C42.5046 39.68 43.2326 40.356 44.2076 40.356C44.9096 40.356 45.5076 40.109 45.7546 39.524H47.4186ZM42.3876 37.483H45.9106C45.8066 36.612 45.2866 35.858 44.2076 35.858C43.2066 35.858 42.5436 36.508 42.3876 37.483ZM57.0473 40.603C56.4103 41.201 55.7473 41.682 54.4603 41.682C52.4193 41.682 51.3273 40.33 51.3273 39.03C51.3273 37.691 52.2373 36.911 53.3293 36.326C52.7443 35.585 52.3673 35.026 52.3673 34.181C52.3673 33.115 53.2773 32.127 54.7203 32.127C56.0593 32.127 57.1773 32.868 57.1773 34.168C57.1773 35.26 56.4363 36.04 55.5653 36.586L57.0343 38.315C57.2033 37.912 57.3203 37.47 57.3853 37.106H58.6853C58.5813 37.938 58.2823 38.835 57.9183 39.433L59.7253 41.5H57.8013L57.0473 40.603ZM52.9653 39.03C52.9653 39.823 53.6673 40.382 54.4343 40.382C55.3313 40.382 55.7863 39.966 56.1633 39.589L54.2523 37.353C53.5113 37.769 52.9653 38.172 52.9653 39.03ZM53.8623 34.233C53.8623 34.753 54.2393 35.182 54.6553 35.702C55.2013 35.312 55.7083 34.922 55.7083 34.233C55.6953 33.7 55.3053 33.31 54.7593 33.31C54.3043 33.31 53.8623 33.635 53.8623 34.233ZM28.8975 52.588C28.4295 54.434 26.8565 55.669 24.5555 55.669C21.7345 55.669 19.8365 53.693 19.8365 50.872C19.8365 48.077 21.7475 46.049 24.5685 46.049C26.8955 46.049 28.3255 47.232 28.8975 49.13H27.1815C26.6875 48.038 25.8295 47.531 24.5685 47.531C22.7615 47.531 21.5785 48.961 21.5785 50.872C21.5785 52.744 22.7745 54.187 24.5685 54.187C25.9855 54.187 26.7915 53.576 27.1685 52.588H28.8975ZM30.2927 46.218H31.9697V55.5H30.2927V46.218ZM36.6497 55.695C34.6867 55.695 33.1267 54.304 33.1267 52.133C33.1267 49.975 34.6867 48.597 36.6497 48.597C38.6127 48.597 40.1597 49.975 40.1597 52.133C40.1597 54.304 38.6127 55.695 36.6497 55.695ZM34.7647 52.133C34.7647 53.355 35.5057 54.369 36.6497 54.369C37.7937 54.369 38.5347 53.355 38.5347 52.133C38.5347 50.924 37.7937 49.91 36.6497 49.91C35.5057 49.91 34.7647 50.924 34.7647 52.133ZM43.3777 52.978C43.3777 53.758 43.5467 54.2 44.2617 54.2H44.6907V55.526H43.8847C42.2207 55.552 41.7527 54.564 41.7527 53.212V50.053H40.6737V48.779H41.7527V47.258L43.3777 46.543V48.779H44.7297V50.053H43.3777V52.978ZM45.7937 55.5V46.218H47.4317V49.923C47.8087 49.156 48.4067 48.597 49.4467 48.597C51.1887 48.597 51.8647 49.741 51.8647 51.392V55.5H50.2007V51.795C50.2007 50.82 49.9407 50.053 48.9787 50.053C48.0817 50.053 47.4707 50.846 47.4707 52.484V55.5H45.7937Z" fill="#212121"/>
</svg>
