<svg width="15" height="14" viewBox="0 0 15 14" fill="none" xmlns="http://www.w3.org/2000/svg">
<path d="M7.32812 1.3125C5.27734 1.3125 3.41797 2.40625 2.37891 4.15625C1.36719 5.93359 1.36719 8.09375 2.37891 9.84375C3.41797 11.6211 5.27734 12.6875 7.32812 12.6875C9.35156 12.6875 11.2109 11.6211 12.25 9.84375C13.2617 8.09375 13.2617 5.93359 12.25 4.15625C11.2109 2.40625 9.35156 1.3125 7.32812 1.3125ZM7.32812 14C4.8125 14 2.51562 12.6875 1.25781 10.5C0 8.33984 0 5.6875 1.25781 3.5C2.51562 1.33984 4.8125 0 7.32812 0C9.81641 0 12.1133 1.33984 13.3711 3.5C14.6289 5.6875 14.6289 8.33984 13.3711 10.5C12.1133 12.6875 9.81641 14 7.32812 14ZM5.35938 6.34375H9.29688C9.65234 6.34375 9.95312 6.64453 9.95312 7C9.95312 7.38281 9.65234 7.65625 9.29688 7.65625H5.35938C4.97656 7.65625 4.70312 7.38281 4.70312 7C4.70312 6.64453 4.97656 6.34375 5.35938 6.34375Z" fill="#11322C"/>
</svg>
