<svg width="15" height="14" viewBox="0 0 15 14" fill="none" xmlns="http://www.w3.org/2000/svg">
<path d="M7.32812 1.3125C5.27734 1.3125 3.41797 2.40625 2.37891 4.15625C1.36719 5.93359 1.36719 8.09375 2.37891 9.84375C3.41797 11.6211 5.27734 12.6875 7.32812 12.6875C9.35156 12.6875 11.2109 11.6211 12.25 9.84375C13.2617 8.09375 13.2617 5.93359 12.25 4.15625C11.2109 2.40625 9.35156 1.3125 7.32812 1.3125ZM7.32812 14C4.8125 14 2.51562 12.6875 1.25781 10.5C0 8.33984 0 5.6875 1.25781 3.5C2.51562 1.33984 4.8125 0 7.32812 0C9.81641 0 12.1133 1.33984 13.3711 3.5C14.6289 5.6875 14.6289 8.33984 13.3711 10.5C12.1133 12.6875 9.81641 14 7.32812 14ZM6.67188 9.40625V7.65625H4.92188C4.53906 7.65625 4.26562 7.38281 4.26562 7C4.26562 6.64453 4.53906 6.34375 4.92188 6.34375H6.67188V4.59375C6.67188 4.23828 6.94531 3.9375 7.32812 3.9375C7.68359 3.9375 7.98438 4.23828 7.98438 4.59375V6.34375H9.73438C10.0898 6.34375 10.3906 6.64453 10.3906 7C10.3906 7.38281 10.0898 7.65625 9.73438 7.65625H7.98438V9.40625C7.98438 9.78906 7.68359 10.0625 7.32812 10.0625C6.94531 10.0625 6.67188 9.78906 6.67188 9.40625Z" fill="#11322C"/>
</svg>
